<svg id="visual" viewBox="0 0 960 540" width="960" height="540" xmlns="http://www.w3.org/2000/svg" xmlns:xlink="http://www.w3.org/1999/xlink" version="1.1"><g stroke-width="1" stroke-linejoin="bevel"><path d="M447.7 262L514.3 239L446.7 183Z" fill="#531d77" stroke="#531d77"></path><path d="M514.3 239L500.3 156L446.7 183Z" fill="#7d2384" stroke="#7d2384"></path><path d="M653 107L497.3 119L500.3 156Z" fill="#a6298e" stroke="#a6298e"></path><path d="M500.3 156L497.3 119L446.7 183Z" fill="#8b2588" stroke="#8b2588"></path><path d="M497.3 119L412.7 125L446.7 183Z" fill="#a6298e" stroke="#a6298e"></path><path d="M446.7 183L329 290L447.7 262Z" fill="#98278b" stroke="#98278b"></path><path d="M610 309L605 213L514.3 239Z" fill="#7d2384" stroke="#7d2384"></path><path d="M514.3 239L605 213L500.3 156Z" fill="#98278b" stroke="#98278b"></path><path d="M447.7 262L548.3 348L514.3 239Z" fill="#37196c" stroke="#37196c"></path><path d="M319 156L329 290L446.7 183Z" fill="#7d2384" stroke="#7d2384"></path><path d="M447.7 262L425.7 392L548.3 348Z" fill="#37196c" stroke="#37196c"></path><path d="M548.3 348L610 309L514.3 239Z" fill="#611f7c" stroke="#611f7c"></path><path d="M412.7 125L319 156L446.7 183Z" fill="#98278b" stroke="#98278b"></path><path d="M329 290L425.7 392L447.7 262Z" fill="#611f7c" stroke="#611f7c"></path><path d="M739.7 140L653 107L605 213Z" fill="#8b2588" stroke="#8b2588"></path><path d="M605 213L653 107L500.3 156Z" fill="#8b2588" stroke="#8b2588"></path><path d="M497.3 119L443.7 0L412.7 125Z" fill="#141560" stroke="#141560"></path><path d="M513.3 0L443.7 0L497.3 119Z" fill="#7d2384" stroke="#7d2384"></path><path d="M412.7 125L282 52L319 156Z" fill="#531d77" stroke="#531d77"></path><path d="M620 0L513.3 0L497.3 119Z" fill="#8b2588" stroke="#8b2588"></path><path d="M720.7 366L708.7 271L610 309Z" fill="#98278b" stroke="#98278b"></path><path d="M610 309L708.7 271L605 213Z" fill="#451b72" stroke="#451b72"></path><path d="M562.3 473L642 399L548.3 348Z" fill="#7d2384" stroke="#7d2384"></path><path d="M548.3 348L642 399L610 309Z" fill="#271766" stroke="#271766"></path><path d="M443.7 0L351 0L412.7 125Z" fill="#271766" stroke="#271766"></path><path d="M351 0L282 52L412.7 125Z" fill="#37196c" stroke="#37196c"></path><path d="M189.3 251L280 394L329 290Z" fill="#611f7c" stroke="#611f7c"></path><path d="M309 449L400.7 467L425.7 392Z" fill="#531d77" stroke="#531d77"></path><path d="M425.7 392L562.3 473L548.3 348Z" fill="#141560" stroke="#141560"></path><path d="M329 290L280 394L425.7 392Z" fill="#6f2180" stroke="#6f2180"></path><path d="M189.3 251L329 290L319 156Z" fill="#271766" stroke="#271766"></path><path d="M282 52L223.3 151L319 156Z" fill="#7d2384" stroke="#7d2384"></path><path d="M400.7 467L562.3 473L425.7 392Z" fill="#a6298e" stroke="#a6298e"></path><path d="M740.7 58L620 0L653 107Z" fill="#7d2384" stroke="#7d2384"></path><path d="M653 107L620 0L497.3 119Z" fill="#531d77" stroke="#531d77"></path><path d="M280 394L309 449L425.7 392Z" fill="#98278b" stroke="#98278b"></path><path d="M708.7 271L739.7 140L605 213Z" fill="#611f7c" stroke="#611f7c"></path><path d="M223.3 151L189.3 251L319 156Z" fill="#451b72" stroke="#451b72"></path><path d="M280 394L183.3 439L309 449Z" fill="#37196c" stroke="#37196c"></path><path d="M721.7 486L720.7 366L642 399Z" fill="#6f2180" stroke="#6f2180"></path><path d="M642 399L720.7 366L610 309Z" fill="#37196c" stroke="#37196c"></path><path d="M708.7 271L817.3 271L739.7 140Z" fill="#7d2384" stroke="#7d2384"></path><path d="M282 52L175.3 129L223.3 151Z" fill="#6f2180" stroke="#6f2180"></path><path d="M223.3 151L175.3 129L189.3 251Z" fill="#271766" stroke="#271766"></path><path d="M248.3 0L175.3 129L282 52Z" fill="#8b2588" stroke="#8b2588"></path><path d="M562.3 473L633 489L642 399Z" fill="#271766" stroke="#271766"></path><path d="M498.3 540L633 489L562.3 473Z" fill="#98278b" stroke="#98278b"></path><path d="M351 0L248.3 0L282 52Z" fill="#6f2180" stroke="#6f2180"></path><path d="M739.7 140L740.7 58L653 107Z" fill="#451b72" stroke="#451b72"></path><path d="M410.7 540L498.3 540L400.7 467Z" fill="#611f7c" stroke="#611f7c"></path><path d="M400.7 467L498.3 540L562.3 473Z" fill="#37196c" stroke="#37196c"></path><path d="M284 540L410.7 540L400.7 467Z" fill="#141560" stroke="#141560"></path><path d="M142.7 385L186.3 396L189.3 251Z" fill="#451b72" stroke="#451b72"></path><path d="M189.3 251L186.3 396L280 394Z" fill="#451b72" stroke="#451b72"></path><path d="M309 449L284 540L400.7 467Z" fill="#37196c" stroke="#37196c"></path><path d="M248.3 0L142.7 110L175.3 129Z" fill="#a6298e" stroke="#a6298e"></path><path d="M95.7 211L118.7 282L189.3 251Z" fill="#7d2384" stroke="#7d2384"></path><path d="M839.3 425L817.3 271L720.7 366Z" fill="#531d77" stroke="#531d77"></path><path d="M720.7 366L817.3 271L708.7 271Z" fill="#8b2588" stroke="#8b2588"></path><path d="M739.7 140L849.3 117L740.7 58Z" fill="#611f7c" stroke="#611f7c"></path><path d="M877.3 0L744.7 0L740.7 58Z" fill="#7d2384" stroke="#7d2384"></path><path d="M740.7 58L744.7 0L620 0Z" fill="#37196c" stroke="#37196c"></path><path d="M95.7 211L189.3 251L175.3 129Z" fill="#37196c" stroke="#37196c"></path><path d="M142.7 385L183.3 439L186.3 396Z" fill="#141560" stroke="#141560"></path><path d="M186.3 396L183.3 439L280 394Z" fill="#8b2588" stroke="#8b2588"></path><path d="M676 540L721.7 486L633 489Z" fill="#7d2384" stroke="#7d2384"></path><path d="M633 489L721.7 486L642 399Z" fill="#a6298e" stroke="#a6298e"></path><path d="M118.7 282L142.7 385L189.3 251Z" fill="#451b72" stroke="#451b72"></path><path d="M233.3 540L284 540L309 449Z" fill="#37196c" stroke="#37196c"></path><path d="M142.7 110L95.7 211L175.3 129Z" fill="#531d77" stroke="#531d77"></path><path d="M118.7 282L70.7 413L142.7 385Z" fill="#7d2384" stroke="#7d2384"></path><path d="M498.3 540L676 540L633 489Z" fill="#611f7c" stroke="#611f7c"></path><path d="M874.3 190L849.3 117L739.7 140Z" fill="#37196c" stroke="#37196c"></path><path d="M183.3 439L233.3 540L309 449Z" fill="#8b2588" stroke="#8b2588"></path><path d="M139.7 540L233.3 540L183.3 439Z" fill="#98278b" stroke="#98278b"></path><path d="M881.3 328L874.3 190L817.3 271Z" fill="#98278b" stroke="#98278b"></path><path d="M817.3 271L874.3 190L739.7 140Z" fill="#a6298e" stroke="#a6298e"></path><path d="M676 540L725.7 540L721.7 486Z" fill="#a6298e" stroke="#a6298e"></path><path d="M721.7 486L839.3 425L720.7 366Z" fill="#7d2384" stroke="#7d2384"></path><path d="M831.3 540L839.3 425L721.7 486Z" fill="#141560" stroke="#141560"></path><path d="M839.3 425L881.3 328L817.3 271Z" fill="#37196c" stroke="#37196c"></path><path d="M0 285L70.7 413L118.7 282Z" fill="#611f7c" stroke="#611f7c"></path><path d="M142.7 385L70.7 413L183.3 439Z" fill="#8b2588" stroke="#8b2588"></path><path d="M0 78L0 212L95.7 211Z" fill="#7d2384" stroke="#7d2384"></path><path d="M95.7 211L0 285L118.7 282Z" fill="#98278b" stroke="#98278b"></path><path d="M248.3 0L69.7 0L142.7 110Z" fill="#141560" stroke="#141560"></path><path d="M70.7 413L139.7 540L183.3 439Z" fill="#451b72" stroke="#451b72"></path><path d="M849.3 117L877.3 0L740.7 58Z" fill="#271766" stroke="#271766"></path><path d="M960 87L877.3 0L849.3 117Z" fill="#6f2180" stroke="#6f2180"></path><path d="M960 87L849.3 117L874.3 190Z" fill="#98278b" stroke="#98278b"></path><path d="M0 78L95.7 211L142.7 110Z" fill="#531d77" stroke="#531d77"></path><path d="M0 212L0 285L95.7 211Z" fill="#6f2180" stroke="#6f2180"></path><path d="M70.7 413L0 540L139.7 540Z" fill="#611f7c" stroke="#611f7c"></path><path d="M725.7 540L831.3 540L721.7 486Z" fill="#7d2384" stroke="#7d2384"></path><path d="M960 371L960 255L881.3 328Z" fill="#6f2180" stroke="#6f2180"></path><path d="M960 255L874.3 190L881.3 328Z" fill="#271766" stroke="#271766"></path><path d="M960 255L960 213L874.3 190Z" fill="#141560" stroke="#141560"></path><path d="M960 371L881.3 328L839.3 425Z" fill="#a6298e" stroke="#a6298e"></path><path d="M69.7 0L0 78L142.7 110Z" fill="#531d77" stroke="#531d77"></path><path d="M0 285L0 397L70.7 413Z" fill="#611f7c" stroke="#611f7c"></path><path d="M960 213L960 87L874.3 190Z" fill="#98278b" stroke="#98278b"></path><path d="M0 397L0 419L70.7 413Z" fill="#611f7c" stroke="#611f7c"></path><path d="M960 444L960 371L839.3 425Z" fill="#6f2180" stroke="#6f2180"></path><path d="M69.7 0L0 0L0 78Z" fill="#611f7c" stroke="#611f7c"></path><path d="M831.3 540L960 444L839.3 425Z" fill="#a6298e" stroke="#a6298e"></path><path d="M960 87L960 0L877.3 0Z" fill="#a6298e" stroke="#a6298e"></path><path d="M0 419L0 540L70.7 413Z" fill="#531d77" stroke="#531d77"></path><path d="M831.3 540L960 540L960 444Z" fill="#451b72" stroke="#451b72"></path></g></svg>