<svg id="visual" viewBox="0 0 1080 540" width="1080" height="540" xmlns="http://www.w3.org/2000/svg" xmlns:xlink="http://www.w3.org/1999/xlink" version="1.1"><rect x="0" y="0" width="1080" height="540" fill="#140021"></rect><path d="M656 540L513 540L513 486L573 486L573 432L727 432L727 378L448 378L448 324L561 324L561 270L707 270L707 216L638 216L638 162L712 162L712 108L504 108L504 54L547 54L547 0L1080 0L1080 54L1080 54L1080 108L1080 108L1080 162L1080 162L1080 216L1080 216L1080 270L1080 270L1080 324L1080 324L1080 378L1080 378L1080 432L1080 432L1080 486L1080 486L1080 540L1080 540Z" fill="#9900ff"></path><path d="M795 540L547 540L547 486L706 486L706 432L732 432L732 378L834 378L834 324L780 324L780 270L618 270L618 216L726 216L726 162L579 162L579 108L643 108L643 54L737 54L737 0L1080 0L1080 54L1080 54L1080 108L1080 108L1080 162L1080 162L1080 216L1080 216L1080 270L1080 270L1080 324L1080 324L1080 378L1080 378L1080 432L1080 432L1080 486L1080 486L1080 540L1080 540Z" fill="#a900ea"></path><path d="M883 540L656 540L656 486L779 486L779 432L774 432L774 378L682 378L682 324L873 324L873 270L823 270L823 216L762 216L762 162L597 162L597 108L723 108L723 54L659 54L659 0L1080 0L1080 54L1080 54L1080 108L1080 108L1080 162L1080 162L1080 216L1080 216L1080 270L1080 270L1080 324L1080 324L1080 378L1080 378L1080 432L1080 432L1080 486L1080 486L1080 540L1080 540Z" fill="#b300d6"></path><path d="M916 540L736 540L736 486L815 486L815 432L830 432L830 378L906 378L906 324L706 324L706 270L872 270L872 216L907 216L907 162L907 162L907 108L869 108L869 54L876 54L876 0L1080 0L1080 54L1080 54L1080 108L1080 108L1080 162L1080 162L1080 216L1080 216L1080 270L1080 270L1080 324L1080 324L1080 378L1080 378L1080 432L1080 432L1080 486L1080 486L1080 540L1080 540Z" fill="#b900c4"></path><path d="M904 540L944 540L944 486L786 486L786 432L881 432L881 378L889 378L889 324L841 324L841 270L905 270L905 216L839 216L839 162L975 162L975 108L794 108L794 54L816 54L816 0L1080 0L1080 54L1080 54L1080 108L1080 108L1080 162L1080 162L1080 216L1080 216L1080 270L1080 270L1080 324L1080 324L1080 378L1080 378L1080 432L1080 432L1080 486L1080 486L1080 540L1080 540Z" fill="#bb13b3"></path><path d="M1017 540L999 540L999 486L914 486L914 432L967 432L967 378L905 378L905 324L930 324L930 270L1000 270L1000 216L977 216L977 162L953 162L953 108L895 108L895 54L910 54L910 0L1080 0L1080 54L1080 54L1080 108L1080 108L1080 162L1080 162L1080 216L1080 216L1080 270L1080 270L1080 324L1080 324L1080 378L1080 378L1080 432L1080 432L1080 486L1080 486L1080 540L1080 540Z" fill="#bb22a4"></path><path d="M1065 540L1040 540L1040 486L959 486L959 432L1038 432L1038 378L1018 378L1018 324L990 324L990 270L1041 270L1041 216L936 216L936 162L955 162L955 108L920 108L920 54L1061 54L1061 0L1080 0L1080 54L1080 54L1080 108L1080 108L1080 162L1080 162L1080 216L1080 216L1080 270L1080 270L1080 324L1080 324L1080 378L1080 378L1080 432L1080 432L1080 486L1080 486L1080 540L1080 540Z" fill="#b82e96"></path></svg>