<?xml version="1.0" standalone="no"?><svg xmlns="http://www.w3.org/2000/svg" viewBox="0 0 1440 320"><path fill="#0099ff" fill-opacity="1" d="M0,288L20,240C40,192,80,96,120,90.7C160,85,200,171,240,218.7C280,267,320,277,360,234.7C400,192,440,96,480,101.3C520,107,560,213,600,229.3C640,245,680,171,720,160C760,149,800,203,840,229.3C880,256,920,256,960,266.7C1000,277,1040,299,1080,298.7C1120,299,1160,277,1200,256C1240,235,1280,213,1320,218.7C1360,224,1400,256,1420,272L1440,288L1440,320L1420,320C1400,320,1360,320,1320,320C1280,320,1240,320,1200,320C1160,320,1120,320,1080,320C1040,320,1000,320,960,320C920,320,880,320,840,320C800,320,760,320,720,320C680,320,640,320,600,320C560,320,520,320,480,320C440,320,400,320,360,320C320,320,280,320,240,320C200,320,160,320,120,320C80,320,40,320,20,320L0,320Z"></path></svg>