<svg width="1920" height="1080" viewBox="0 0 1920 1080" xmlns="http://www.w3.org/2000/svg"><rect width="1920" height="1080" fill="#df6688"/><path d="M 0,1080 C 0,1080 0,180 0,180 C 69.25576211353413,160.52642771736035 138.51152422706826,141.0528554347207 173,150 C 207.48847577293174,158.9471445652793 207.2096652052611,196.31500597847747 246,214 C 284.7903347947389,231.68499402152253 362.6498149518875,229.68712065136938 398,214 C 433.3501850481125,198.31287934863062 426.1910749871889,168.9365114160451 530,161 C 633.8089250128111,153.0634885839549 848.5858850993566,166.56683368445024 909,171 C 969.4141149006434,175.43316631554976 875.4653846153847,170.79615384615386 892,161 C 908.5346153846153,151.20384615384614 1035.5525764391048,136.24855093093436 1097,145 C 1158.4474235608952,153.75144906906564 1154.3243096281956,186.20964243010874 1181,206 C 1207.6756903718044,225.79035756989126 1265.1501850481125,232.91287934863064 1333,222 C 1400.8498149518875,211.08712065136936 1479.0749501793543,182.13884017536867 1532,178 C 1584.9250498206457,173.86115982463133 1612.5500142344702,194.53175994989465 1673,199 C 1733.4499857655298,203.46824005010535 1826.724992882765,191.73412002505268 1920,180 C 1920,180 1920,1080 1920,1080 Z" fill="#3d1053" opacity="0.09999999999999999"/><path d="M 0,1080 C 0,1080 0,360 0,360 C 30.122217161077273,323.92567898422817 60.24443432215455,287.8513579684564 104,300 C 147.75556567784545,312.1486420315436 205.1444798724591,372.5202471104026 258,378 C 310.8555201275409,383.4797528895974 359.1776461880089,334.0676535899334 443,331 C 526.8223538119911,327.9323464100666 646.1449353755053,371.2091385298639 709,368 C 771.8550646244947,364.7908614701361 778.2426123099698,315.095792290611 816,309 C 853.7573876900302,302.904207709389 922.8846153846152,340.4076923076923 990,346 C 1057.1153846153848,351.5923076923077 1122.2189261515687,325.2734384786198 1148,320 C 1173.7810738484313,314.7265615213802 1160.23968000911,330.49855377782836 1191,324 C 1221.76031999089,317.50144622217164 1296.8223538119912,288.7323464100666 1391,308 C 1485.1776461880088,327.2676535899334 1598.4709047429255,394.57206058190513 1662,414 C 1725.5290952570745,433.42793941809487 1739.294027216307,404.97941126231285 1774,388 C 1808.705972783693,371.02058873768715 1864.3529863918466,365.5102943688436 1920,360 C 1920,360 1920,1080 1920,1080 Z" fill="#3d1053" opacity="0.19999999999999998"/><path d="M 0,1080 C 0,1080 0,540 0,540 C 60.63001005902561,511.63641936647116 121.26002011805122,483.2728387329424 201,474 C 280.7399798819488,464.7271612670576 379.58992958682074,474.54506443470177 396,474 C 412.41007041317926,473.45493556529823 346.38026153466575,462.5469035282506 380,489 C 413.61973846533425,515.4530964717494 546.8890242745165,579.2673214522955 636,605 C 725.1109757254835,630.7326785477045 770.0636413672684,618.3838106625672 791,593 C 811.9363586327316,567.6161893374328 808.8564102564102,529.197435897436 863,533 C 917.1435897435898,536.802564102564 1028.5107176070908,582.8264457476891 1127,590 C 1225.4892823929092,597.1735542523109 1311.1007193152268,565.496781111807 1337,559 C 1362.8992806847732,552.503218888193 1329.0864051320011,571.1864298050826 1359,585 C 1388.9135948679989,598.8135701949174 1482.5536601567687,607.7574996678624 1534,597 C 1585.4463398432313,586.2425003321376 1594.6989542409235,555.7835715234679 1652,543 C 1709.3010457590765,530.2164284765321 1814.6505228795381,535.1082142382661 1920,540 C 1920,540 1920,1080 1920,1080 Z" fill="#3d1053" opacity="0.3"/><path d="M 0,1080 C 0,1080 0,720 0,720 C 57.51395262768318,725.0644005390119 115.02790525536636,730.1288010780238 192,730 C 268.97209474463364,729.8711989219762 365.4023316062177,724.5491962269165 398,736 C 430.5976683937823,747.4508037730835 399.36276831976306,775.6744140143104 415,768 C 430.63723168023694,760.3255859856896 493.14659511472996,716.753147715842 584,723 C 674.85340488527,729.246852284158 794.0508512213174,785.3129951223216 854,775 C 913.9491487786826,764.6870048776784 914.6500000000001,687.9948717948719 983,674 C 1051.35,660.0051282051281 1187.3491487786825,708.7075176981913 1211,718 C 1234.6508512213175,727.2924823018087 1145.9534048852702,697.1750574123631 1172,713 C 1198.0465951147298,728.8249425876369 1338.8372316802368,790.5922526523563 1458,782 C 1577.1627683197632,773.4077473476437 1674.6976683937824,694.4559319782118 1693,674 C 1711.3023316062176,653.5440680217882 1650.3720947446338,691.5840194347967 1675,709 C 1699.6279052553662,726.4159805652033 1809.8139526276832,723.2079902826017 1920,720 C 1920,720 1920,1080 1920,1080 Z" fill="#3d1053" opacity="0.39999999999999997"/><path d="M 0,1080 C 0,1080 0,900 0,900 C 19.663179221469377,890.9422963047316 39.326358442938755,881.8845926094631 68,894 C 96.67364155706125,906.1154073905369 134.35774544971434,939.403925866879 234,925 C 333.64225455028566,910.596074133121 495.2426597582038,848.4997039230202 585,855 C 674.7573402417962,861.5002960769798 692.6716155174704,936.5972584410407 698,947 C 703.3283844825296,957.4027415589593 696.0708781719145,903.1112623128168 734,886 C 771.9291218280855,868.8887376871832 855.0448717948717,888.9576923076922 912,886 C 968.9551282051283,883.0423076923078 999.7496346485984,857.0579684564142 1096,867 C 1192.2503653514016,876.9420315435858 1353.9565896107347,922.8104338666514 1390,932 C 1426.0434103892653,941.1895661333486 1336.4240069084628,913.7002960769801 1333,909 C 1329.5759930915372,904.2997039230199 1412.347382755414,922.3883818254285 1513,925 C 1613.652617244586,927.6116181745715 1732.1864620698818,914.7461766213062 1803,908 C 1873.8135379301182,901.2538233786938 1896.9067689650592,900.6269116893469 1920,900 C 1920,900 1920,1080 1920,1080 Z" fill="#3d1053" opacity="0.49999999999999994"/></svg>