<svg id="visual" viewBox="0 0 900 600" width="900" height="600" xmlns="http://www.w3.org/2000/svg" xmlns:xlink="http://www.w3.org/1999/xlink" version="1.1"><rect x="0" y="0" width="900" height="600" fill="#21001d"></rect><path d="M0 156L21.5 168.5C43 181 86 206 128.8 212.5C171.7 219 214.3 207 257.2 203.5C300 200 343 205 385.8 213.8C428.7 222.7 471.3 235.3 514.2 234.8C557 234.3 600 220.7 642.8 210C685.7 199.3 728.3 191.7 771.2 197C814 202.3 857 220.7 878.5 229.8L900 239L900 0L878.5 0C857 0 814 0 771.2 0C728.3 0 685.7 0 642.8 0C600 0 557 0 514.2 0C471.3 0 428.7 0 385.8 0C343 0 300 0 257.2 0C214.3 0 171.7 0 128.8 0C86 0 43 0 21.5 0L0 0Z" fill="#c62368"></path><path d="M0 203L21.5 195.3C43 187.7 86 172.3 128.8 165.7C171.7 159 214.3 161 257.2 159.7C300 158.3 343 153.7 385.8 146.8C428.7 140 471.3 131 514.2 133.7C557 136.3 600 150.7 642.8 150.5C685.7 150.3 728.3 135.7 771.2 130.3C814 125 857 129 878.5 131L900 133L900 0L878.5 0C857 0 814 0 771.2 0C728.3 0 685.7 0 642.8 0C600 0 557 0 514.2 0C471.3 0 428.7 0 385.8 0C343 0 300 0 257.2 0C214.3 0 171.7 0 128.8 0C86 0 43 0 21.5 0L0 0Z" fill="#d53867"></path><path d="M0 112L21.5 113C43 114 86 116 128.8 117.5C171.7 119 214.3 120 257.2 125.8C300 131.7 343 142.3 385.8 140.8C428.7 139.3 471.3 125.7 514.2 117C557 108.3 600 104.7 642.8 101.7C685.7 98.7 728.3 96.3 771.2 104.8C814 113.3 857 132.7 878.5 142.3L900 152L900 0L878.5 0C857 0 814 0 771.2 0C728.3 0 685.7 0 642.8 0C600 0 557 0 514.2 0C471.3 0 428.7 0 385.8 0C343 0 300 0 257.2 0C214.3 0 171.7 0 128.8 0C86 0 43 0 21.5 0L0 0Z" fill="#e34c67"></path><path d="M0 96L21.5 94.2C43 92.3 86 88.7 128.8 89.3C171.7 90 214.3 95 257.2 96.7C300 98.3 343 96.7 385.8 97.3C428.7 98 471.3 101 514.2 99.2C557 97.3 600 90.7 642.8 86.2C685.7 81.7 728.3 79.3 771.2 81.8C814 84.3 857 91.7 878.5 95.3L900 99L900 0L878.5 0C857 0 814 0 771.2 0C728.3 0 685.7 0 642.8 0C600 0 557 0 514.2 0C471.3 0 428.7 0 385.8 0C343 0 300 0 257.2 0C214.3 0 171.7 0 128.8 0C86 0 43 0 21.5 0L0 0Z" fill="#ef5f67"></path><path d="M0 55L21.5 54.5C43 54 86 53 128.8 54.5C171.7 56 214.3 60 257.2 57.5C300 55 343 46 385.8 45.5C428.7 45 471.3 53 514.2 55.8C557 58.7 600 56.3 642.8 53.3C685.7 50.3 728.3 46.7 771.2 42.7C814 38.7 857 34.3 878.5 32.2L900 30L900 0L878.5 0C857 0 814 0 771.2 0C728.3 0 685.7 0 642.8 0C600 0 557 0 514.2 0C471.3 0 428.7 0 385.8 0C343 0 300 0 257.2 0C214.3 0 171.7 0 128.8 0C86 0 43 0 21.5 0L0 0Z" fill="#fa7268"></path></svg>